<svg width="200" height="58" viewBox="0 0 200 58" fill="none" xmlns="http://www.w3.org/2000/svg">
<g id="Frame" clip-path="url(#clip0_164_818)">
<path id="Vector" d="M58.2274 29C58.2274 13.1439 45.3696 0.289978 29.5087 0.289978C13.6478 0.289978 0.790039 13.1439 0.790039 29C0.790039 44.8561 13.6478 57.71 29.5087 57.71C45.3696 57.71 58.2274 44.8561 58.2274 29Z" stroke="#EED9BD"/>
<path id="Vector_2" d="M19.0658 24.65H12.1037C11.623 24.65 11.2334 25.0395 11.2334 25.52V41.76C11.2334 42.2405 11.623 42.63 12.1037 42.63H19.0658C19.5464 42.63 19.936 42.2405 19.936 41.76V25.52C19.936 25.0395 19.5464 24.65 19.0658 24.65Z" stroke="#EED9BD"/>
<path id="Vector_3" d="M32.9896 10.15H26.0275C25.5469 10.15 25.1572 10.5395 25.1572 11.02V41.76C25.1572 42.2405 25.5469 42.63 26.0275 42.63H32.9896C33.4702 42.63 33.8599 42.2405 33.8599 41.76V11.02C33.8599 10.5395 33.4702 10.15 32.9896 10.15Z" stroke="#EED9BD"/>
<path id="Vector_4" d="M46.9144 32.19H39.9523C39.4717 32.19 39.082 32.5795 39.082 33.06V41.76C39.082 42.2405 39.4717 42.63 39.9523 42.63H46.9144C47.395 42.63 47.7847 42.2405 47.7847 41.76V33.06C47.7847 32.5795 47.395 32.19 46.9144 32.19Z" stroke="#EED9BD"/>
<path id="Vector_5" d="M129.009 29C129.009 13.1439 116.151 0.289978 100.29 0.289978C84.4291 0.289978 71.5713 13.1439 71.5713 29C71.5713 44.8561 84.4291 57.71 100.29 57.71C116.151 57.71 129.009 44.8561 129.009 29Z" stroke="#EED9BD"/>
<path id="Vector_6" d="M112.245 15.3311L106.216 11.8511C105.799 11.6109 105.267 11.7535 105.027 12.1696L92.8431 33.266C92.6028 33.6821 92.7454 34.2142 93.1616 34.4544L99.191 37.9344C99.6072 38.1746 100.139 38.0321 100.38 37.616L112.563 16.5196C112.804 16.1035 112.661 15.5714 112.245 15.3311Z" stroke="#EED9BD"/>
<path id="Vector_7" d="M92.251 35.938L97.932 39.2168C98.5366 39.5659 98.5047 40.449 97.8763 40.7533L91.6754 43.7553L90.9502 36.7813C90.8771 36.0747 91.636 35.5828 92.251 35.938Z" stroke="#EED9BD"/>
<path id="Vector_8" d="M199.21 29C199.21 13.1439 186.352 0.289978 170.491 0.289978C154.63 0.289978 141.772 13.1439 141.772 29C141.772 44.8561 154.63 57.71 170.491 57.71C186.352 57.71 199.21 44.8561 199.21 29Z" stroke="#EED9BD"/>
<path id="Vector_9" d="M159.468 18.27C159.468 15.2269 161.935 12.76 164.979 12.76H170.491V23.78H164.979C161.935 23.78 159.468 21.3131 159.468 18.27Z" stroke="#EED9BD"/>
<path id="Vector_10" d="M170.491 12.76H176.003C179.047 12.76 181.515 15.2269 181.515 18.27C181.515 21.3131 179.047 23.78 176.003 23.78H170.491V12.76Z" stroke="#EED9BD"/>
<path id="Vector_11" d="M159.468 29.29C159.468 26.2469 161.935 23.78 164.979 23.78H170.491V34.8H164.979C161.935 34.8 159.468 32.3331 159.468 29.29Z" stroke="#EED9BD"/>
<path id="Vector_12" d="M181.515 29.29C181.515 26.2469 179.047 23.78 176.003 23.78C172.959 23.78 170.491 26.2469 170.491 29.29C170.491 32.3331 172.959 34.8 176.003 34.8C179.047 34.8 181.515 32.3331 181.515 29.29Z" stroke="#EED9BD"/>
<path id="Vector_13" d="M159.468 40.31C159.468 37.2669 161.935 34.8 164.979 34.8H170.491V40.31C170.491 43.3531 168.024 45.82 164.979 45.82C161.935 45.82 159.468 43.3531 159.468 40.31Z" stroke="#EED9BD"/>
</g>
<defs>
<clipPath id="clip0_164_818">
<rect width="199" height="58" fill="white" transform="translate(0.5)"/>
</clipPath>
</defs>
</svg>
